<svg xmlns="http://www.w3.org/2000/svg" xmlns:xlink="http://www.w3.org/1999/xlink" viewBox="0 0 36 36"><path d="M 27.056 35.665 C 20.942 35.81 14.832 35.81 8.718 35.665 C 4.009 35.554 0.221 31.765 0.109 27.056 C -0.036 20.944 -0.036 14.83 0.109 8.718 C 0.22 4.009 4.009 0.22 8.718 0.109 C 14.832 -0.036 20.942 -0.036 27.056 0.109 C 31.765 0.221 35.553 4.009 35.665 8.718 C 35.81 14.832 35.81 20.942 35.665 27.056 C 35.553 31.765 31.765 35.553 27.056 35.665" fill="rgb(255,255,255)"></path><g><defs><linearGradient id="idss4221457263_2g1206851" gradientTransform="rotate(0, 0.5, 0.5)"><stop offset="0" stop-color="#ff2922" stop-opacity="1"></stop><stop offset="1" stop-color="#fe255b" stop-opacity="1"></stop></linearGradient></defs><path d="M 17.584 8.756 C 17.584 8.756 17.175 8.777 16.672 8.926 C 15.856 9.167 15.196 9.772 14.87 10.559 L 14.786 10.761 C 14.677 11.088 14.992 11.399 15.316 11.28 C 16.64 10.795 19.344 10.216 21.861 12.214 C 22.125 12.423 22.52 12.303 22.625 11.983 C 22.718 11.698 22.743 11.311 22.546 10.829 C 22.123 9.792 20.364 8.738 18.102 8.738 C 17.932 8.738 17.759 8.744 17.584 8.756 Z M 10.257 13.964 C 11.011 17.608 16.288 19.963 20.936 22.256 C 23.81 23.673 23.635 25.415 23.083 26.538 C 22.889 26.931 23.327 27.335 23.706 27.116 C 24.117 26.879 24.539 26.555 24.863 26.12 C 25.774 24.895 26.339 20.968 18.392 17.388 C 12.546 14.753 13.118 12.42 13.743 11.44 C 13.815 11.329 13.826 11.188 13.772 11.067 C 13.719 10.946 13.607 10.86 13.477 10.839 C 13.477 10.839 13.282 10.813 12.986 10.813 C 11.949 10.813 9.67 11.127 10.257 13.964 Z M 23.918 12.216 C 23.41 14.23 21.565 15.712 20.594 16.371 C 20.336 16.546 20.366 16.934 20.645 17.072 C 21.722 17.601 22.272 17.907 22.539 18.066 C 22.682 18.153 22.864 18.142 22.997 18.04 C 24.476 16.909 26.132 15.049 26.088 13.571 C 26.057 12.552 25.175 12.069 24.571 11.858 C 24.518 11.839 24.463 11.829 24.407 11.829 C 24.182 11.829 23.977 11.983 23.918 12.216 Z M 15.877 12.308 C 14.789 12.838 15.47 13.726 15.787 14.06 C 16.386 14.69 17.196 15.184 17.791 15.497 C 18.309 15.771 18.936 15.741 19.426 15.417 C 20.026 15.019 20.651 14.481 21.082 14.088 C 21.379 13.817 21.335 13.34 20.997 13.123 C 19.592 12.216 18.449 11.928 17.553 11.928 C 16.842 11.928 16.286 12.109 15.877 12.308 Z M 9.098 16.922 C 8.616 18.089 8.367 20.626 12.581 24.031 C 14.383 25.487 16.705 26.573 19.244 27.38 C 20.633 27.822 22.051 26.79 22.051 25.332 C 22.051 24.623 21.626 23.983 20.973 23.708 C 13.88 20.712 10.955 17.944 9.958 16.784 C 9.862 16.671 9.721 16.606 9.572 16.607 C 9.377 16.607 9.183 16.717 9.098 16.922 Z M 26.142 17.007 C 25.635 17.641 24.933 18.227 24.41 18.623 C 24.245 18.748 24.144 18.94 24.136 19.147 C 24.128 19.354 24.213 19.553 24.368 19.69 C 25.221 20.451 25.713 21.161 25.996 21.729 C 26.179 22.097 26.72 22.054 26.829 21.657 C 27.368 19.693 27.311 18.215 27.138 17.257 C 27.085 16.965 26.834 16.796 26.579 16.796 C 26.419 16.796 26.258 16.862 26.142 17.007 Z" fill="url(#idss4221457263_2g1206851)"></path></g></svg>